<svg xmlns="http://www.w3.org/2000/svg" viewBox="0 0 512 512" width="512" height="512">
  <defs>
    <linearGradient id="bgGrad" x1="0%" y1="0%" x2="100%" y2="100%">
      <stop offset="0%" stop-color="#176B5B"/>
      <stop offset="100%" stop-color="#0E483D"/>
    </linearGradient>
    <linearGradient id="glowGrad" x1="0%" y1="0%" x2="100%" y2="100%">
      <stop offset="0%" stop-color="#FDE68A"/>
      <stop offset="100%" stop-color="#F59E0B"/>
    </linearGradient>
  </defs>
  <rect width="512" height="512" rx="112" fill="url(#bgGrad)"/>
  <circle cx="256" cy="256" r="160" stroke="#258572" stroke-width="12" fill="none" opacity="0.6"/>
  <path d="M256 120 C185.3 120 128 177.3 128 248 C128 328 232 408 248 420 C252.8 423.6 259.2 423.6 264 420 C280 408 384 328 384 248 C384 177.3 326.7 120 256 120 Z" fill="#FFFFFF"/>
  <circle cx="256" cy="240" r="64" fill="#176B5B"/>
  <polygon points="256,204 266,230 294,230 271,246 280,272 256,256 232,272 241,246 218,230 246,230" fill="url(#glowGrad)"/>
</svg>
